<svg xmlns="http://www.w3.org/2000/svg" viewBox="0 0 512 512" role="img" aria-label="BWH">
  <defs>
    <linearGradient id="g" x1="0" y1="0" x2="1" y2="1">
      <stop offset="0" stop-color="#22c55e" />
      <stop offset="1" stop-color="#38bdf8" />
    </linearGradient>
  </defs>
  <rect width="512" height="512" rx="112" fill="#0b1220" />
  <path d="M256 118c42 0 76 34 76 76 0 14-4 28-11 40h57c22 0 40 18 40 40 0 19-13 35-31 39v7c0 46-37 83-83 83h-96c-46 0-83-37-83-83v-7c-18-4-31-20-31-39 0-22 18-40 40-40h57c-7-12-11-26-11-40 0-42 34-76 76-76zm-48 116h96c18 0 34-10 42-25a75 75 0 0 1-42 13c-18 0-35-6-48-17a75 75 0 0 1-48 17c-15 0-30-4-42-13 8 15 24 25 42 25z" fill="url(#g)"/>
  <path d="M186 354h140a12 12 0 0 1 12 12v18a12 12 0 0 1-12 12H186a12 12 0 0 1-12-12v-18a12 12 0 0 1 12-12z" fill="#e2e8f0" opacity="0.9"/>
  <circle cx="176" cy="272" r="18" fill="#e2e8f0" opacity="0.85"/>
  <circle cx="336" cy="272" r="18" fill="#e2e8f0" opacity="0.85"/>
</svg>
