<svg xmlns="http://www.w3.org/2000/svg" viewBox="0 0 512 512" role="img" aria-label="BWH maskable">
  <rect width="512" height="512" fill="#0b1220" />
  <circle cx="256" cy="256" r="210" fill="#0f172a"/>
  <path d="M256 140c36 0 66 30 66 66 0 13-4 26-11 37h57c17 0 31 14 31 31 0 16-12 29-27 31v8c0 41-33 74-74 74h-84c-41 0-74-33-74-74v-8c-15-2-27-15-27-31 0-17 14-31 31-31h57c-7-11-11-24-11-37 0-36 30-66 66-66zm-42 109h84c16 0 31-9 38-23a67 67 0 0 1-38 12c-16 0-31-6-42-16a67 67 0 0 1-42 16c-13 0-27-4-38-12 7 14 22 23 38 23z" fill="#22c55e"/>
  <path d="M206 350h100a12 12 0 0 1 12 12v20a12 12 0 0 1-12 12H206a12 12 0 0 1-12-12v-20a12 12 0 0 1 12-12z" fill="#38bdf8"/>
</svg>
